<svg width="2381" height="1256" viewBox="0 0 2381 1256" fill="none" xmlns="http://www.w3.org/2000/svg">
<path d="M1.40174 1157.95C-2.54377 1134.68 10.8773 792.905 135.218 509.925C246.832 256.267 506.383 111.698 810.161 294.011C1135.65 489.405 1416.4 509.053 1642.78 452.056C1866.2 395.546 2014.77 225.275 2081.5 116.7C2226.32 -117.932 2440.25 27.1997 2365.1 335.908C2329.65 479.511 2236.18 519.66 2074.21 534.561C1904.91 550.136 1654.77 517.075 1307.83 584.45C973.244 649.682 596.719 806.346 384.993 1005.76C159.666 1218.16 34.4351 1361 1.40174 1157.95Z" fill="url(#paint0_linear_239_8)"/>
<defs>
<linearGradient id="paint0_linear_239_8" x1="2257" y1="973.321" x2="52.6677" y2="290.041" gradientUnits="userSpaceOnUse">
<stop stop-color="#5D50C6"/>
<stop offset="1" stop-color="#F85E9F"/>
</linearGradient>
</defs>
</svg>
